<?xml version="1.0" encoding="UTF-8"?>
<svg width="240px" height="44px" viewBox="0 0 240 44" version="1.1" xmlns="http://www.w3.org/2000/svg" xmlns:xlink="http://www.w3.org/1999/xlink">
    <!-- Generator: Sketch 55.2 (78181) - https://sketchapp.com -->
    <title>dayone_logo</title>
    <desc>Created with Sketch.</desc>
    <g id="Page-1" stroke="none" stroke-width="1" fill="none" fill-rule="evenodd">
        <g id="website" transform="translate(-693.000000, -235.000000)" fill-rule="nonzero">
            <g id="dayone_logo" transform="translate(693.000000, 235.000000)">
                <path d="M36.5981776,20.8925585 L23.7147428,43.2 L-4.97379915e-14,43.2 L24.4059426,0.459093011 L24.6680942,0 L24.9241193,0.448363983 L36.5981776,20.8925585 Z M40.6363859,27.9644709 L49.3361884,43.2 L31.8372619,43.2 L40.6363859,27.9644709 Z M89.8329764,27.2057143 C89.8329764,31.6971653 88.4025839,35.4856989 85.5417559,38.5714286 C82.6809279,41.6571583 79.0235769,43.2 74.5695931,43.2 L64.2398287,43.2 L64.2398287,11.16 L75.3404711,11.16 C79.5203635,11.16 82.9807143,12.7542698 85.7216274,15.9428571 C88.4625405,19.1314445 89.8329764,22.8856927 89.8329764,27.2057143 Z M75.1862955,19.3371429 L72.5139186,19.3371429 L72.5139186,35.1257143 L75.1862955,35.1257143 C76.967889,35.1257143 78.4753686,34.3457221 79.7087794,32.7857143 C80.9421903,31.2257065 81.5588865,29.3657251 81.5588865,27.2057143 C81.5588865,25.0114176 80.9421903,23.1514362 79.7087794,21.6257143 C78.4753686,20.0999924 76.967889,19.3371429 75.1862955,19.3371429 Z M102.62955,32.7085714 L98.2098501,43.2 L89.267666,43.2 L102.62955,11.16 L115.940043,43.2 L106.997859,43.2 L102.62955,32.7085714 Z M131.152034,43.2 L122.929336,43.2 L122.929336,29.8285714 L111.1606,11.16 L120.925054,11.16 L127.092077,20.9314286 L133.156317,11.16 L142.920771,11.16 L131.152034,29.8285714 L131.152034,43.2 Z M185.062099,27.2057143 C185.062099,31.6971653 183.511793,35.4856989 180.411135,38.5714286 C177.310477,41.6571583 173.584604,43.2 169.233405,43.2 C164.882205,43.2 161.164898,41.6314443 158.08137,38.4942857 C154.997843,35.3571272 153.456103,31.5943077 153.456103,27.2057143 C153.456103,22.7485491 154.997843,18.9600156 158.08137,15.84 C161.164898,12.7199844 164.882205,11.16 169.233405,11.16 C173.447559,11.16 177.13917,12.6942704 180.308351,15.7628571 C183.477532,18.8314439 185.062099,22.6456915 185.062099,27.2057143 Z M161.730193,27.2057143 C161.730193,29.400011 162.449672,31.2342783 163.888651,32.7085714 C165.32763,34.1828645 167.109197,34.92 169.233405,34.92 C171.28909,34.92 173.062091,34.1828645 174.552463,32.7085714 C176.042834,31.2342783 176.788009,29.400011 176.788009,27.2057143 C176.788009,25.1142753 176.059964,23.2971506 174.603854,21.7542857 C173.147744,20.2114209 171.357612,19.44 169.233405,19.44 C167.109197,19.44 165.32763,20.1942782 163.888651,21.7028571 C162.449672,23.2114361 161.730193,25.0457035 161.730193,27.2057143 Z M213.019272,43.2 L197.036403,29.3657143 L197.036403,43.2 L188.762313,43.2 L188.762313,11.2628571 L204.950749,25.3542857 L204.950749,11.16 L213.173448,11.16 L213.173448,43.2 L213.019272,43.2 Z M226.638116,19.44 L226.638116,23.04 L235.785867,23.04 L235.785867,31.32 L226.638116,31.32 L226.638116,34.92 L239.537473,34.92 L239.537473,43.2 L218.364026,43.2 L218.364026,11.16 L239.537473,11.16 L239.537473,19.44 L226.638116,19.44 Z" id="Combined-Shape" fill="#F3F5FB"></path>
                <polygon id="Triangle" fill="#FFB830" points="40.5995717 27.7714286 40.6902473 27.9315586 49.3361884 43.2 31.862955 43.2 40.5067264 27.9353904"></polygon>
            </g>
        </g>
    </g>
</svg>