<?xml version="1.0" encoding="UTF-8"?>
<svg width="20px" height="16px" viewBox="0 0 20 16" version="1.1" xmlns="http://www.w3.org/2000/svg" xmlns:xlink="http://www.w3.org/1999/xlink">
    <!-- Generator: Sketch 55.2 (78181) - https://sketchapp.com -->
    <title>mail_logo</title>
    <desc>Created with Sketch.</desc>
    <g id="Page-1" stroke="none" stroke-width="1" fill="none" fill-rule="evenodd">
        <g id="mail_logo" fill="#000000" fill-rule="nonzero">
            <path d="M0,2 C0,0.8954305 0.8954305,0 2,0 L18,0 C19.1045695,0 20,0.8954305 20,2 L20,14 C20,15.1045695 19.1045695,16 18,16 L2,16 C0.8954305,16 0,15.1045695 0,14 L0,2 Z M3.519,2 L10,7.671 L16.481,2 L3.52,2 L3.519,2 Z M18,3.329 L10.659,9.753 C10.2818145,10.0834761 9.71818551,10.0834761 9.341,9.753 L2,3.329 L2,14 L18,14 L18,3.329 Z" id="Shape"></path>
        </g>
    </g>
</svg>